<?xml version="1.0" encoding="UTF-8"?>
<svg width="33px" height="32px" viewBox="0 0 33 32" version="1.1" xmlns="http://www.w3.org/2000/svg" xmlns:xlink="http://www.w3.org/1999/xlink">
    <!-- Generator: Sketch 63.1 (92452) - https://sketch.com -->
    <title>正确</title>
    <desc>Created with Sketch.</desc>
    <g id="页面-1" stroke="none" stroke-width="1" fill="none" fill-rule="evenodd">
        <g id="14天行程申报与查询-境内" transform="translate(-40.000000, -483.000000)" fill-rule="nonzero">
            <g id="正确" transform="translate(40.000000, 483.000000)">
                <rect id="矩形" fill="#000000" opacity="0" x="0" y="0" width="32" height="32"></rect>
                <path d="M28.4593582,7 C28.8427619,7 29.1616693,7.12649104 29.4178673,7.37965178 C29.6721,7.63656435 29.7989483,7.95672246 29.7989483,8.33994741 C29.7989483,8.71584734 29.6708494,9.03225358 29.4125075,9.28916616 L13.3317092,25.3685352 C13.074618,25.6288423 12.7566038,25.7592638 12.3796319,25.7592638 C12.0030174,25.7592638 11.6846459,25.6288423 11.42684,25.3683565 L3.38644083,17.3326025 C3.12863495,17.0719381 3,16.7555318 3,16.3796319 C3,15.9962283 3.12649104,15.6760702 3.38233166,15.4193363 C3.63692167,15.1661755 3.95618648,15.0396845 4.33923279,15.0396845 C4.71674064,15.0396845 5.03457617,15.1661755 5.29256069,15.42684 L12.3796319,22.5248094 L27.5063876,7.38697681 C27.7643722,7.12666969 28.082565,7 28.4593582,7" id="路径" stroke="#1F90FB" fill="#1F90FB"></path>
            </g>
        </g>
    </g>
</svg>