<?xml version="1.0" encoding="UTF-8"?>
<svg width="48px" height="48px" viewBox="0 0 48 48" version="1.1" xmlns="http://www.w3.org/2000/svg" xmlns:xlink="http://www.w3.org/1999/xlink">
    <title>喇叭</title>
    <defs>
        <path d="M22.2958195,32.9350226 C21.7225489,32.9350226 21.1448684,32.776153 20.624515,32.4538748 L11.8226053,27.0523096 C11.7829173,27.0250748 11.7388195,26.99784 11.7035414,26.9706052 C11.3507594,26.7845009 10.9803383,26.6891791 10.6010977,26.6891791 L4.48033083,26.6891791 C2.01085714,26.6891791 0,24.3923791 0,21.5735791 L0,11.3650748 C0,8.54173565 2.01085714,6.24947478 4.48033083,6.24947478 L10.6010977,6.24947478 C11.0288459,6.24947478 11.4610038,6.12237913 11.8490639,5.88180522 L20.6509737,0.48024 C21.6696316,-0.14616 22.8955489,-0.159777391 23.9274361,0.439387826 C25.082797,1.11571826 25.7971805,2.44568348 25.7971805,3.91182261 L25.7839511,9.83992696 L25.7707218,29.0222922 C25.7707218,30.4884313 25.0519286,31.8183965 23.9009774,32.494727 C23.3938534,32.7897704 22.8470414,32.9350226 22.2958195,32.9350226 Z" id="path-1"></path>
        <linearGradient x1="60.7910052%" y1="0%" x2="89.5185065%" y2="29.6553294%" id="linearGradient-3">
            <stop stop-color="#FFF6E9" stop-opacity="0" offset="0%"></stop>
            <stop stop-color="#FFFFFF" offset="100%"></stop>
        </linearGradient>
    </defs>
    <g id="页面-1" stroke="none" stroke-width="1" fill="none" fill-rule="evenodd">
        <g id="首页消息通知备份-3" transform="translate(-40.000000, -185.000000)">
            <g id="喇叭" transform="translate(40.000000, 185.000000)">
                <g id="编组-2" transform="translate(0.653571, 0.782857)">
                    <rect id="矩形" fill="#000000" fill-rule="nonzero" opacity="0" x="0.489285714" y="0.36" width="45.7142857" height="45.7142857"></rect>
                    <g id="编组-4" transform="translate(2.285714, 8.000000)">
                        <g id="椭圆形" transform="translate(0.489286, 0.360000)">
                            <mask id="mask-2" fill="white">
                                <use xlink:href="#path-1"></use>
                            </mask>
                            <use id="蒙版" fill="#FFFFFF" xlink:href="#path-1"></use>
                            <ellipse fill="url(#linearGradient-3)" opacity="0.137997582" mask="url(#mask-2)" cx="2.11669173" cy="28.3241739" rx="17.6390977" ry="18.1565217"></ellipse>
                        </g>
                        <g id="路径-2" transform="translate(30.203571, 4.931429)" fill="#FFFFFF">
                            <path d="M1.33438391,17.7478992 C0.992963717,17.7478992 0.651543528,17.6051698 0.389788049,17.3155131 C-0.12992935,16.7403977 -0.12992935,15.8042609 0.389788049,15.2291455 C2.35105736,13.0588194 2.35105736,9.52836638 0.389788049,7.35804031 C-0.12992935,6.78292489 -0.12992935,5.84678812 0.389788049,5.2716727 C0.909505448,4.69655728 1.75546881,4.69655728 2.27518621,5.2716727 C5.27589031,8.59222961 5.27589031,13.9949562 2.27518621,17.3155131 C2.01722428,17.6051698 1.6758041,17.7478992 1.33438391,17.7478992 L1.33438391,17.7478992 Z" id="路径"></path>
                            <path d="M7.42180655,22.5882353 C7.06679056,22.5882353 6.71177457,22.4247528 6.43959564,22.0929794 C5.89918241,21.434241 5.89918241,20.3619881 6.43959564,19.7032497 C8.28173418,17.4577692 9.29550207,14.4718091 9.29550207,11.2935166 C9.29550207,8.11522412 8.28173418,5.12926401 6.43959564,2.88378354 C5.89918241,2.22504516 5.89918241,1.15279217 6.43959564,0.494053787 C6.98000887,-0.164684596 7.85965961,-0.164684596 8.40007284,0.494053787 C10.7668461,3.3790394 12.0685714,7.21126196 12.0685714,11.2935166 C12.0685714,15.3757713 10.7668461,19.2079938 8.40007284,22.0929794 C8.13183854,22.4247528 7.77682254,22.5882353 7.42180655,22.5882353 L7.42180655,22.5882353 Z" id="路径"></path>
                        </g>
                    </g>
                </g>
            </g>
        </g>
    </g>
</svg>